<?xml version="1.0" encoding="UTF-8"?>
<svg xmlns="http://www.w3.org/2000/svg" viewBox="0 0 1200 600" width="1200" height="600">
  <defs>
    <style>
      * { font-family: -apple-system, BlinkMacSystemFont, 'Segoe UI', Roboto, Oxygen, Ubuntu, Cantarell, sans-serif; }
      .title { font-size: 24px; font-weight: bold; fill: #333; }
      .subtitle { font-size: 14px; fill: #666; }
      .label { font-size: 12px; fill: #333; }
      .axis-label { font-size: 12px; fill: #666; }
      .grid-line { stroke: #e0e0e0; stroke-width: 1; }
      .axis { stroke: #333; stroke-width: 2; }
      .bar-label { font-size: 11px; fill: #333; font-weight: 500; }
      .value-label { font-size: 12px; fill: #333; font-weight: bold; }
    </style>
  </defs>

  <!-- Background -->
  <rect width="1200" height="600" fill="#ffffff"/>

  <!-- Title -->
  <text x="600" y="40" text-anchor="middle" class="title">JavaScript Frameworks Bare Bones Weight</text>

  <!-- Y-axis -->
  <line x1="80" y1="60" x2="80" y2="520" class="axis"/>

  <!-- X-axis -->
  <line x1="80" y1="520" x2="1160" y2="520" class="axis"/>

  <!-- Y-axis grid lines and labels -->
  <!-- Grid line 0 -->
  <line x1="80" y1="520" x2="1160" y2="520" class="grid-line"/>
  <text x="70" y="525" text-anchor="end" class="axis-label">0</text>
  <!-- Grid line 1 -->
  <line x1="80" y1="474" x2="1160" y2="474" class="grid-line"/>
  <text x="70" y="479" text-anchor="end" class="axis-label">13</text>
  <!-- Grid line 2 -->
  <line x1="80" y1="428" x2="1160" y2="428" class="grid-line"/>
  <text x="70" y="433" text-anchor="end" class="axis-label">26</text>
  <!-- Grid line 3 -->
  <line x1="80" y1="382" x2="1160" y2="382" class="grid-line"/>
  <text x="70" y="387" text-anchor="end" class="axis-label">39</text>
  <!-- Grid line 4 -->
  <line x1="80" y1="336" x2="1160" y2="336" class="grid-line"/>
  <text x="70" y="341" text-anchor="end" class="axis-label">52</text>
  <!-- Grid line 5 -->
  <line x1="80" y1="290" x2="1160" y2="290" class="grid-line"/>
  <text x="70" y="295" text-anchor="end" class="axis-label">65</text>
  <!-- Grid line 6 -->
  <line x1="80" y1="244" x2="1160" y2="244" class="grid-line"/>
  <text x="70" y="249" text-anchor="end" class="axis-label">78</text>
  <!-- Grid line 7 -->
  <line x1="80" y1="198" x2="1160" y2="198" class="grid-line"/>
  <text x="70" y="203" text-anchor="end" class="axis-label">91</text>
  <!-- Grid line 8 -->
  <line x1="80" y1="152" x2="1160" y2="152" class="grid-line"/>
  <text x="70" y="157" text-anchor="end" class="axis-label">104</text>
  <!-- Grid line 9 -->
  <line x1="80" y1="106" x2="1160" y2="106" class="grid-line"/>
  <text x="70" y="111" text-anchor="end" class="axis-label">117</text>
  <!-- Grid line 10 -->
  <line x1="80" y1="60" x2="1160" y2="60" class="grid-line"/>
  <text x="70" y="65" text-anchor="end" class="axis-label">130</text>
  <text x="20" y="300" text-anchor="middle" transform="rotate(-90 20 300)" class="axis-label">JS bundle size (KB)</text>
  <!-- Bar 0 -->
  <rect x="87.2" y="69.48307692307696" width="57.6" height="450.51692307692304" fill="#000" opacity="0.9" rx="4"/>

    <!-- Value above bar -->
  <text x="116" y="61.483076923076965" text-anchor="middle" class="value-label">127.32</text>
  <!-- Bar 1 -->
  <rect x="159.2" y="169.01999999999998" width="57.6" height="350.98" fill="#06BABE" opacity="0.9" rx="4"/>

    <!-- Value above bar -->
  <text x="188" y="161.01999999999998" text-anchor="middle" class="value-label">99.19</text>
  <!-- Bar 2 -->
  <rect x="231.2" y="310.2046153846154" width="57.6" height="209.7953846153846" fill="#0A7EA5" opacity="0.9" rx="4"/>

    <!-- Value above bar -->
  <text x="260" y="302.2046153846154" text-anchor="middle" class="value-label">59.29</text>
  <!-- Bar 3 -->
  <rect x="303.2" y="322.65999999999997" width="57.6" height="197.34000000000003" fill="#DD0031" opacity="0.9" rx="4"/>

    <!-- Value above bar -->
  <text x="332" y="314.65999999999997" text-anchor="middle" class="value-label">55.77</text>
  <!-- Bar 4 -->
  <rect x="375.2" y="348.13692307692304" width="57.6" height="171.86307692307693" fill="#06BABE" opacity="0.9" rx="4"/>

    <!-- Value above bar -->
  <text x="404" y="340.13692307692304" text-anchor="middle" class="value-label">48.57</text>
  <!-- Bar 5 -->
  <rect x="447.2" y="354.15230769230766" width="57.6" height="165.8476923076923" fill="#00DC82" opacity="0.9" rx="4"/>

    <!-- Value above bar -->
  <text x="476" y="346.15230769230766" text-anchor="middle" class="value-label">46.87</text>
  <!-- Bar 6 -->
  <rect x="519.2" y="360.2738461538462" width="57.6" height="159.72615384615384" fill="#0A7EA5" opacity="0.9" rx="4"/>

    <!-- Value above bar -->
  <text x="548" y="352.2738461538462" text-anchor="middle" class="value-label">45.14</text>
  <!-- Bar 7 -->
  <rect x="591.2" y="396.40153846153845" width="57.6" height="123.59846153846154" fill="#3F63DD" opacity="0.9" rx="4"/>

    <!-- Value above bar -->
  <text x="620" y="388.40153846153845" text-anchor="middle" class="value-label">34.93</text>
  <!-- Bar 8 -->
  <rect x="663.2" y="421.66615384615386" width="57.6" height="98.33384615384615" fill="#FF3E00" opacity="0.9" rx="4"/>

    <!-- Value above bar -->
  <text x="692" y="413.66615384615386" text-anchor="middle" class="value-label">27.79</text>
  <!-- Bar 9 -->
  <rect x="735.2" y="431.9630769230769" width="57.6" height="88.03692307692307" fill="#AC7EF4" opacity="0.9" rx="4"/>

    <!-- Value above bar -->
  <text x="764" y="423.9630769230769" text-anchor="middle" class="value-label">24.88</text>
  <!-- Bar 10 -->
  <rect x="807.2" y="440.77384615384614" width="57.6" height="79.22615384615385" fill="#42B883" opacity="0.9" rx="4"/>

    <!-- Value above bar -->
  <text x="836" y="432.77384615384614" text-anchor="middle" class="value-label">22.39</text>
  <!-- Bar 11 -->
  <rect x="879.2" y="457.6876923076923" width="57.6" height="62.3123076923077" fill="#2C4F7C" opacity="0.9" rx="4"/>

    <!-- Value above bar -->
  <text x="908" y="449.6876923076923" text-anchor="middle" class="value-label">17.61</text>
  <!-- Bar 12 -->
  <rect x="951.2" y="492.3292307692308" width="57.6" height="27.67076923076923" fill="#FF3E00" opacity="0.9" rx="4"/>

    <!-- Value above bar -->
  <text x="980" y="484.3292307692308" text-anchor="middle" class="value-label">7.82</text>
  <!-- Bar 13 -->
  <rect x="1023.2" y="502.98" width="57.6" height="17.02" fill="#673AB8" opacity="0.9" rx="4"/>

    <!-- Value above bar -->
  <text x="1052" y="494.98" text-anchor="middle" class="value-label">4.81</text>
  <!-- Bar 14 -->
  <rect x="1095.2" y="505.63384615384615" width="57.6" height="14.366153846153844" fill="#2C4F7C" opacity="0.9" rx="4"/>

    <!-- Value above bar -->
  <text x="1124" y="497.63384615384615" text-anchor="middle" class="value-label">4.06</text>
  <text x="116" y="540" text-anchor="middle" class="bar-label">next-16</text>
  <text x="188" y="540" text-anchor="middle" class="bar-label">tanstack-react</text>
  <text x="260" y="540" text-anchor="middle" class="bar-label">react-19</text>
  <text x="332" y="540" text-anchor="middle" class="bar-label">angular-21</text>
  <text x="404" y="540" text-anchor="middle" class="bar-label">tanstack-solid</text>
  <text x="476" y="540" text-anchor="middle" class="bar-label">nuxt-4</text>
  <text x="548" y="540" text-anchor="middle" class="bar-label">react-18</text>
  <text x="620" y="540" text-anchor="middle" class="bar-label">vitepress</text>
  <text x="692" y="540" text-anchor="middle" class="bar-label">sveltekit</text>
  <text x="764" y="540" text-anchor="middle" class="bar-label">qwik</text>
  <text x="836" y="540" text-anchor="middle" class="bar-label">vue</text>
  <text x="908" y="540" text-anchor="middle" class="bar-label">solid-start</text>
  <text x="980" y="540" text-anchor="middle" class="bar-label">svelte</text>
  <text x="1052" y="540" text-anchor="middle" class="bar-label">preact</text>
  <text x="1124" y="540" text-anchor="middle" class="bar-label">solid</text>
  <text x="600" y="585" text-anchor="middle" class="axis-label">Framework</text>
  <text x="1160" y="590" text-anchor="end" font-size="10" fill="#999">Generated on 1/7/2026, 10:55:14 PM</text>
</svg>